# xmcd
#
# Track frame offsets: 
#        150
#        11418
#        29365
#        43751
#        60885
#        77832
#        89446
#        100464
#        113627
#        131293
#        142685
#        156198
#        174855
#        189490
#        203765
#
# Disc length: 2888 seconds
#
# Revision: 0
# Processed by: cddbd v1.5.1PL0 Copyright (c) Steve Scherf et al.
# Submitted via: ExactAudioCopy v0.95a5
#
DISCID=b20b460f
DTITLE=Mac Wiseman  - The Heart Of A Legend  cd # 1
DYEAR=2002
DGENRE=COUNTRY
TTITLE0=Blue In My Mind
TTITLE1=Don't Make Me Go To Bed
TTITLE2=Filipino Baby
TTITLE3=The Great Speckled Bird
TTITLE4=Have I Told You Lately (That I Love You)
TTITLE5=I'd Trade All My Tomorrows
TTITLE6=If Teardrops Were Pennies
TTITLE7=Just Because
TTITLE8=The Last Letter
TTITLE9=Let's Live A Bit Before We Say Goodbye
TTITLE10=Let's Say Goodbye Like We Said Hello
TTITLE11=Letter Edged In Black
TTITLE12=Little Pine Log Cabin
TTITLE13=Mansion On A Hill
TTITLE14=Maple On The Hill
EXTD=
EXTT0=
EXTT1=
EXTT2=
EXTT3=
EXTT4=
EXTT5=
EXTT6=
EXTT7=
EXTT8=
EXTT9=
EXTT10=
EXTT11=
EXTT12=
EXTT13=
EXTT14=
PLAYORDER=
